<svg width="39" height="38" viewBox="0 0 39 38" fill="none" xmlns="http://www.w3.org/2000/svg">
<path d="M19.5906 38C30.084 38 38.5906 29.4934 38.5906 19C38.5906 8.50659 30.084 0 19.5906 0C9.09717 0 0.590576 8.50659 0.590576 19C0.590576 29.4934 9.09717 38 19.5906 38Z" fill="#F3BA2F"/>
<path fill-rule="evenodd" clip-rule="evenodd" d="M15.6185 17.367L19.5926 13.3946L23.5683 17.3702L25.8794 15.0576L19.5926 8.76929L13.3057 15.0559L15.6185 17.367ZM9.35986 19.0004L11.6717 16.6886L13.9836 19.0004L11.6717 21.3122L9.35986 19.0004ZM19.5926 24.6071L15.6185 20.6331L13.3025 22.9426L13.3057 22.9458L19.5926 29.2308L25.8794 22.9426L25.8811 22.9409L23.5683 20.6315L19.5926 24.6071ZM25.1976 19.001L27.5095 16.6892L29.8214 19.001L27.5095 21.3128L25.1976 19.001ZM19.5926 16.6527L21.9376 18.9992H21.9393L21.9376 19.0009L19.5926 21.3475L17.2475 19.0041L17.2443 18.9992L17.2475 18.996L17.658 18.5855L17.8585 18.3867L19.5926 16.6527Z" fill="white"/>
</svg>
