<svg width="24" height="24" viewBox="0 0 24 24" fill="none" xmlns="http://www.w3.org/2000/svg">
<path d="M12 24C18.6274 24 24 18.6274 24 12C24 5.37258 18.6274 0 12 0C5.37258 0 0 5.37258 0 12C0 18.6274 5.37258 24 12 24Z" fill="white"/>
<path fill-rule="evenodd" clip-rule="evenodd" d="M9.49125 10.9686L12.0012 8.45969L14.5122 10.9706L15.9719 9.50999L12.0012 5.53845L8.03058 9.50897L9.49125 10.9686ZM5.53845 12.0002L6.99859 10.5401L8.45872 12.0002L6.99859 13.4603L5.53845 12.0002ZM12.0012 15.5413L9.49125 13.0314L8.02854 14.49L8.03058 14.492L12.0012 18.4615L15.9719 14.49L15.9729 14.489L14.5122 13.0304L12.0012 15.5413ZM15.5413 12.0006L17.0014 10.5405L18.4615 12.0006L17.0014 13.4607L15.5413 12.0006ZM12.0012 10.5174L13.4823 11.9995H13.4833L13.4823 12.0005L12.0012 13.4826L10.5201 12.0025L10.5181 11.9995L10.5201 11.9974L10.7794 11.7382L10.906 11.6126L12.0012 10.5174Z" fill="#F3BA2F"/>
</svg>
