<svg width="32" height="32" viewBox="0 0 32 32" fill="none" xmlns="http://www.w3.org/2000/svg">
<path d="M12.5625 32H24.5C27.2571 32 29.5 29.7571 29.5 27V10.0625C29.5 7.30542 27.2571 5.0625 24.5 5.0625H12.5625C9.80542 5.0625 7.5625 7.30542 7.5625 10.0625V27C7.5625 29.7571 9.80542 32 12.5625 32ZM24.5 7.5625C25.8784 7.5625 27 8.68408 27 10.0625V27C27 28.3784 25.8784 29.5 24.5 29.5H12.5625C11.1841 29.5 10.0625 28.3784 10.0625 27V10.0625C10.0625 8.68408 11.1841 7.5625 12.5625 7.5625H24.5ZM2.5625 23.875V5C2.5625 2.24292 4.80542 0 7.5625 0H21.4375C22.1279 0 22.6875 0.55957 22.6875 1.25C22.6875 1.94043 22.1279 2.5 21.4375 2.5H7.5625C6.18408 2.5 5.0625 3.62158 5.0625 5V23.875C5.0625 24.5654 4.50293 25.125 3.8125 25.125C3.12207 25.125 2.5625 24.5654 2.5625 23.875Z" fill="white" fill-opacity="0.4"/>
</svg>
