<svg width="30" height="30" viewBox="0 0 30 30" fill="none" xmlns="http://www.w3.org/2000/svg">
<circle opacity="0.2" cx="15" cy="15" r="15" fill="#ED636C"/>
<path d="M21.1365 19.0909V19.7727C21.1365 20.5261 20.5263 21.1364 19.7729 21.1364H10.2274C9.474 21.1364 8.86377 20.5261 8.86377 19.7727V10.2273C8.86377 9.47387 9.474 8.86365 10.2274 8.86365H19.7729C20.5263 8.86365 21.1365 9.47387 21.1365 10.2273V10.9091H15.0001C14.2467 10.9091 13.6365 11.5193 13.6365 12.2727V17.7273C13.6365 18.4807 14.2467 19.0909 15.0001 19.0909H21.1365ZM15.0001 17.7273H21.8183V12.2727H15.0001V17.7273ZM17.7274 16.0227C17.1615 16.0227 16.7047 15.5659 16.7047 15C16.7047 14.4341 17.1615 13.9773 17.7274 13.9773C18.2933 13.9773 18.7501 14.4341 18.7501 15C18.7501 15.5659 18.2933 16.0227 17.7274 16.0227Z" fill="#ED636C"/>
</svg>
